<svg id="Layer_1" data-name="Layer 1" xmlns="http://www.w3.org/2000/svg" viewBox="0 0 166.35 100.2"><defs><style>.cls-1{fill:#fff;}</style></defs><title>ap-logo-white</title><path class="cls-1" d="M991.61,593.44l-11.72-42.59c-11.14-.2-22-.82-31.64-1.75L929,586.6l-5.34-2.75,18.24-35.45c-9.7-1.16-17.59-2.66-22.35-4.37-6.57-2.36-9.62-5.6-9-9.63,1.42-10.06,29-17.42,29.29-17.43l.39,6-.19-3,.75,2.9a122.57,122.57,0,0,0-13.16,4.83c-9,4-11.11,6.83-11.14,7.58,0,.25.87,1.58,5.13,3.11,4.67,1.68,12.93,3.18,23.27,4.32l25.44-49.47,14.22,51.61c8.56.06,17.28-.14,25.74-.65l23.47-45.6,1.66-.14c1-.08,25.58-1.91,36.37,9.54,4.11,4.35,5.72,10,4.79,16.63-.74,5.26-4.22,9.81-10.37,13.52-12.19,7.37-33.3,10.58-52.18,11.91Zm-5.48-42.52L993.31,577,1007,550.46c-6.55.33-12.64.44-17.72.46Zm-34.91-7.59c8.23.73,17.44,1.23,27,1.43l-9.67-35.11Zm86.23-39-20.25,39.34c19.19-1.58,36.27-4.91,45.82-10.68,4.52-2.74,7-5.84,7.52-9.22.68-4.85-.37-8.67-3.2-11.68C1059.92,504.23,1042.81,504.16,1037.45,504.35Z" transform="translate(-910.39 -493.23)"/></svg>