<svg id="Layer_1" data-name="Layer 1" xmlns="http://www.w3.org/2000/svg" viewBox="0 0 361 672"><defs><style>.cls-1{fill:#ff9100;}</style></defs><title>bricks-3</title><path class="cls-1" d="M1009,371.33v150H835a25,25,0,0,1-25-25v-100a25,25,0,0,1,25-25Z" transform="translate(-648 -197.33)"/><rect id="Rectangle_82" data-name="Rectangle 82" class="cls-1" width="300" height="150" rx="25"/><rect id="Rectangle_84" data-name="Rectangle 84" class="cls-1" y="348" width="300" height="150" rx="25"/><path class="cls-1" d="M1009,719.33v150H835a25,25,0,0,1-25-25v-100a25,25,0,0,1,25-25Z" transform="translate(-648 -197.33)"/><path class="cls-1" d="M1009,197.33v150H997a25,25,0,0,1-25-25v-100a25,25,0,0,1,25-25Z" transform="translate(-648 -197.33)"/><path class="cls-1" d="M1009,545.33v150H997a25,25,0,0,1-25-25v-100a25,25,0,0,1,25-25Z" transform="translate(-648 -197.33)"/></svg>