<svg xmlns="http://www.w3.org/2000/svg" viewBox="0 0 1540.4 360"><defs><style>.cls-1{fill:#fff;}.cls-1,.cls-2,.cls-3,.cls-4{stroke:#000;stroke-miterlimit:10;}.cls-1,.cls-3{stroke-width:2px;}.cls-2,.cls-3{fill:none;}</style></defs><title>baagoe-logo-small-1</title><g id="Layer_2" data-name="Layer 2"><path class="cls-1" d="M1791.84,663.05c-20.55,7.67-42.94,8.39-64.86,9.08-490.69,15.35-985,48.11-1472.25,108.34V571.82c164.68-7.09,330.31-14.15,493.81,6.73,62.69,8,124.89,20.09,187.89,25,112.4,8.83,225.68-5.2,338.06,3.91,52.5,4.25,104.45,13.53,156.69,20.25a1614.58,1614.58,0,0,0,268.73,12c15-.58,31.55,1.41,47.61,5.48S1779,655.35,1791.84,663.05Z" transform="translate(-253.73 -421.61)"/></g><g id="Layer_1" data-name="Layer 1"><path class="cls-1" d="M1164.43,472.62V613.45h33.49V594.34c0-4,6.26-7.26,14-7.26s14,3.25,14,7.26v19.11h33.49V472.62Zm39.56,73a7.91,7.91,0,1,1,15.82,0v20.83H1204Zm0-52.29a7.91,7.91,0,1,1,15.82,0v20.84H1204Z" transform="translate(-253.73 -421.61)"/><path class="cls-2" d="M1204,514.16h15.82V493.32a7.91,7.91,0,1,0-15.82,0Z" transform="translate(-253.73 -421.61)"/><path class="cls-2" d="M1204,566.44h15.82V545.61a7.91,7.91,0,1,0-15.82,0Z" transform="translate(-253.73 -421.61)"/><line class="cls-3" x1="912.91" y1="51.01" x2="905.7" y2="51.01"/><line class="cls-3" x1="1003.44" y1="51.01" x2="1010.64" y2="51.01"/><rect class="cls-2" x="912.91" y="26.15" width="90.53" height="24.86"/><rect class="cls-4" x="942.45" y="26.15" width="31.45" height="24.86"/><rect class="cls-2" x="995.09" y="26.15" width="8.35" height="24.86"/><rect class="cls-2" x="986.75" y="26.15" width="8.34" height="24.86"/><rect class="cls-2" x="978.41" y="26.15" width="8.34" height="24.86"/><rect class="cls-2" x="912.96" y="26.15" width="8.34" height="24.86"/><rect class="cls-2" x="921.3" y="26.15" width="8.34" height="24.86"/><rect class="cls-2" x="929.64" y="26.15" width="8.34" height="24.86"/><polygon points="950.16 12.28 966.18 12.28 974.19 26.15 966.18 40.02 950.16 40.02 942.15 26.15 950.16 12.28"/><rect x="950.26" y="71.71" width="15.82" height="20.84"/><circle cx="1211.9" cy="493.32" r="7.91" transform="translate(-334.65 -129.97) rotate(-13.28)"/><rect x="950.26" y="124" width="15.82" height="20.83"/><path d="M1204,545.61a7.91,7.91,0,1,0,7.91-7.92A7.91,7.91,0,0,0,1204,545.61Z" transform="translate(-253.73 -421.61)"/><rect class="cls-4" x="944.19" y="172.73" width="27.96" height="19.11"/><ellipse class="cls-4" cx="958.17" cy="172.73" rx="13.98" ry="7.26"/><circle cx="958.17" cy="5.23" r="5.23"/><rect x="955.13" y="7.76" width="6.09" height="9.04"/><line class="cls-2" x1="910.7" y1="183.29" x2="910.7" y2="51.01"/><line class="cls-2" x1="1005.64" y1="185.23" x2="1005.64" y2="51.01"/></g></svg>