<svg id="Layer_1" data-name="Layer 1" xmlns="http://www.w3.org/2000/svg" viewBox="0 0 951 472"><defs><style>.cls-1{fill:#fff;}</style></defs><title>baagoe-logo-small-4</title><path class="cls-1" d="M718.5,736.91q-235.46,0-470.91.09c-3.75,0-4.59-.84-4.59-4.59q.17-231.4,0-462.82c0-3.75.84-4.59,4.59-4.59q470.91.15,941.82,0c3.75,0,4.59.84,4.59,4.59q-.16,231.41,0,462.82c0,3.75-.84,4.59-4.59,4.59Q954,736.84,718.5,736.91Z" transform="translate(-243 -265)"/><path d="M292.67,482.88c1.7,2.63,1.24,4.47,1.25,6.17.06,9.49.11,19,0,28.49,0,3,1,4.11,4,4.16q48.74.91,97.47-.46c4.66-.13,6.16-2.8,4.52-7.29-.53-1.48-1-3.36,0-4.31,3.45-3.21,1.66-5.79-.06-9-2-3.72-.91-7.6,2-10.6,3.6-3.77,8.33-4.17,13-2.87,2.52.7,4.41,1.38,6.7-.63a3.92,3.92,0,0,1,5.09.14,2.36,2.36,0,0,1,.57,2.76c-.69,1.77-2.08,1.8-3.72,1.54-2.39-.38-1.67,1.05-1.41,2.46,1.72,9.4-1.93,13.82-11.53,14.05-1.33,0-2.67-.2-4-.13a2.21,2.21,0,0,0-2.27,2.21,2.07,2.07,0,0,0,2.19,2.24c3,.07,6,0,9-.09,5.18-.13,9.77.69,11.14,6.8.57,2.53,2.6,2.21,4.38,2.18,15-.22,30-.52,45-.67,3.2,0,4.64-1.26,4.35-4.47-.06-.66,0-1.33,0-2q0-62.23,0-124.45c0-2.68,1-6-4.2-6.91,8,.32,6.85-4.68,6.79-9.05-.06-4,.25-8-.08-12-.38-4.45.94-6.28,5.72-6,6.64.39,13.34-.17,20,.21,4.19.24,6.6-1.08,8.81-4.73s2.81-9.14,8.84-9.79c1.64-.18.69-2.23.07-3.37-1.57-2.93-1.13-5.58,1.4-7.59a5.31,5.31,0,0,1,6.94,0c2.59,2,3.06,4.7,1.38,7.56-1.37,2.34-1.13,3.46,1.87,3.94,4.17.67,4.77,5,6.2,7.81,2.44,4.89,5.55,6.61,11,6.16,6.62-.54,13.33,0,20-.16,3.19-.06,4.51,1.08,4.39,4.36-.18,5,.16,10-.1,15-.23,4.35.36,7.62,6.33,7.4-3.23,1.25-3.68,3.38-3.68,6.17q.13,64.22,0,128.44c0,4,1.18,5.47,5.23,5.78q43.08,3.28,85.85,9.47c31.32,4.51,62.62,9.14,94,13.17,25.75,3.31,51.59,6,77.5,7.83,37.23,2.64,74.47,4.8,111.8,5.23,28.66.33,57.31,0,86-1.13,33.06-1.34,64,6.59,93.44,21.37a12.4,12.4,0,0,1,1.75,1c1.15.85,3.2,1.19,3,3s-2.23,1.79-3.59,2.21c-16,4.95-32.52,7-49.21,7.54-55.78,1.95-111.56,3.72-167.33,5.83q-75.42,2.87-150.81,6.32c-43.93,2-87.84,4.36-131.76,6.61-41.58,2.13-83.18,4-124.73,6.56-51.88,3.17-103.72,6.92-155.57,10.41-19.44,1.31-38.87,2.69-58.32,3.83-4,.24-5.46,1.61-5.23,5.71.34,6.1.09,12.24.09,18.36h-1.28Z" transform="translate(-243 -265)"/><path d="M353.09,492.05c7.11,2.6,11.39,6.48,10.2,14-.93,5.8-4.73,9.44-11.15,10.49-8.62,1.42-17.29,0-25.94.23-1,0-2.22,0-2.3-1.32s1.21-1.43,2.15-1.62c3.34-.65,3.95-2.92,3.92-5.92q-.17-13.25,0-26.48c0-3.6-.28-6.76-4.71-7.47-.85-.14-1.7-.58-1.63-1.57s.95-1.32,1.81-1.3c8.8.27,17.7-1.17,26.39,1,6.61,1.62,9.8,6.89,8.32,12.64C359.27,488,356.55,489.72,353.09,492.05Z" transform="translate(-243 -265)"/><path d="M763.06,535.45c6.58-4.81,5.29-11.77,5.66-18.17.13-2.22-1.39-3.66-3.65-4.08s-4.85.2-5.4,2.48c-1.39,5.79-5.39,11.61-.56,17.67,1.26,1.57-.06,2.18-1.33,2-3.13-.33-6.27-.8-9.36-1.43-1.4-.28-2.19-1.71-.52-2.3,3.43-1.23,2.91-4.07,3.35-6.57.52-2.94,1-5.9,1.35-8.87a13.08,13.08,0,0,0-.1-3.42c-.21-1.51-4.6-1.78-2-3.51,2-1.34,6-2.63,8.31-.21,1.68,1.78,2.67,1.23,4.16.66,1.93-.73,4.38-1.47,5.75-.09,4.31,4.3,8.92,3.05,14.06,2.24s8.56,2.9,8.46,8.14A99.8,99.8,0,0,1,790,531.42c-.32,2.45-1.09,4.74,1.63,6.68,1.79,1.28.61,2.34-1.18,2.2a67.37,67.37,0,0,1-6.92-1c-1.39-.26-3.45.2-3.89-1.52s1.91-1.35,2.67-2.27a6.07,6.07,0,0,0,1.29-2.6c.7-3.76,1.41-7.53,1.81-11.33.27-2.62-.43-5.09-3.51-5.77-2.77-.61-5.62.42-6.11,3-1,5.53-4.9,11.18-.26,16.86,1.12,1.38.36,2.35-1.16,2.16C770.64,537.39,766.78,537.5,763.06,535.45Z" transform="translate(-243 -265)"/><path d="M1093.54,557.56c-2.36-.06-5.32,0-6.61-1.71-3.94-5.07-8.1-3.94-13.28-2.32-4.91,1.52-9-1-9.86-4.42-1-4.13,1.51-8,6.65-9.62a26.88,26.88,0,0,1,6.35-1.2c2.63-.17,4.49-.67,4.33-3.94-.13-2.68-1.06-4.5-3.8-5-3-.6-4.39.65-4.42,3.68a2.63,2.63,0,0,1-2.42,2.73,2.77,2.77,0,0,1-3-1.34c-.88-1.51-.28-2.9.59-4.17,2.7-3.94,11.11-5.16,16-1.74,2.5,1.76,4.44,1.79,7.19,1.13a11.36,11.36,0,0,1,13.94,10c.36,3.4-.57,5.12-4.35,4.35-3.42-.69-6.88-1.14-10.31-1.78-2.62-.5-3.63.48-3.63,3.13,0,6.51,6.18,10.22,12.31,7.37,1.12-.52,2.45-2.77,3.6-.7.84,1.51-1.16,2.49-2.29,3.37A10.77,10.77,0,0,1,1093.54,557.56Z" transform="translate(-243 -265)"/><path d="M833.89,505c1.48-1.62,3.06-1.23,4.48-1.28,6.16-.23,6.35-.11,5.73,5.9-.94,9.26-2,18.5-3.08,27.74-.25,2.17-.67,4.4,1.08,6.12,2.8,2.76,1.44,3.63-1.58,3.46-2.16-.13-4.71,1.09-6.36-1.5-1-1.62-2-.11-3,.22-8.16,2.81-15.24-1.81-15.89-10.41-.88-11.69,8-19.12,18.84-15.76.92.29,1.73,1,2.53-.26C838.7,516,837.19,507.61,833.89,505Z" transform="translate(-243 -265)"/><path d="M444.24,484.13c2.71,3.13,4.8-4.27,6.57-1.21,1.19,2.06,1.59,4.73,3.29,7,4.15,5.55,4.28,11.79,1,17.81-3.08,5.68-8.19,7.95-14.61,7.28a4.4,4.4,0,0,1-1.46-.27c-2.58-1.24-4.66,4-4.85,2.14-.65-6.52-6.89-10.58-6.41-17.5C428.42,490.12,434.88,483.55,444.24,484.13Z" transform="translate(-243 -265)"/><path d="M1043.15,526.11c7.17-3.52,11.94-2.9,15.92,1.9,4.27,5.15,4,13.7-.68,19.44-3.88,4.79-9.48,5.75-15.74,2.71-1-.49-2-1.79-3.14-1-5.31,3.59-3.9-.64-3.79-3.21.39-9.47.85-18.95,1.23-28.43.07-1.8.27-3.64-.8-5.33-.7-1.12-3.41-1.82-1.81-3.36,1.79-1.71,4.74-1.59,7.14-1.49s1.61,2.51,1.63,4C1043.2,516.14,1043.15,520.94,1043.15,526.11Z" transform="translate(-243 -265)"/><path d="M652.65,520.2c-3.21.32-6.44-3-9.73.24-.56.55-1.85-1-1.27-2,1.43-2.39-.14-4.05-1-6-2.51-5.54-1.59-10.76,1.9-15.52s8.4-6.59,13.65-4.67c2.88,1.05,6.76-2.46,7.17.16a37.51,37.51,0,0,0,2.25,7.69C669.22,509.75,662.32,520.37,652.65,520.2Z" transform="translate(-243 -265)"/><path d="M381.5,486.82c7.09.09,9.46,2.35,9.82,9.57.21,4.14.2,8.3.44,12.44.08,1.39-.14,3.05,1.66,3.83,1,.42,3.2-1.09,2.79,1.43-.3,1.83-2.09,2.44-3.78,2.76-.65.12-1.65.34-1.93,0-4.25-4.69-8.2-.66-12.34.18-3.48.72-7.32.75-9-3.25s-.28-7.43,3.15-10.07a23.28,23.28,0,0,1,9-4.11c2.73-.67,4-2.09,3.42-5s-2.12-4.8-5.45-4.5c-2.76.24-4.35,1.39-3.91,4.46.22,1.59-.11,3-1.92,3.57a3,3,0,0,1-3.22-.74,3.91,3.91,0,0,1-.62-4.19C370.81,489.43,375.78,486.75,381.5,486.82Z" transform="translate(-243 -265)"/><path d="M707.6,526.86c-4.58.79-8.68-.82-14.44-1.72,6-3,5.78-7.7,6.1-11.91.28-3.84,4.37-8.51-2.15-11.77,3.76-.31,7.2-4.27,10.28.85.69,1.13,1.72-.23,2.58-.47,9.28-2.62,15.21,2.63,13.57,12-.42,2.46-.79,4.93-1.26,7.38-.58,3-1,6,2.82,7.94-5,.95-9.33-.1-14.13-1.49,4.64-3.37,7.82-14.4,6.12-19.33-.84-2.41-2.55-3.33-4.93-3.46s-4.34.63-5.25,2.94c-1.79,4.54-1.91,9.42-2.72,14.16C703.76,524.57,707.29,524.28,707.6,526.86Z" transform="translate(-243 -265)"/><path d="M1018.87,523.76c6,0,10.42,3.61,11.31,9.1.41,2.56-.36,3.77-3,3.82-3.81.07-7.63.3-11.44.38-2.44.05-3.28,1.24-2.79,3.52.66,3,1.93,5.82,5,6.94a7.85,7.85,0,0,0,8.37-1.58c1-.88,1.87-3.29,3.39-1.87s-.41,3-1.41,4.16c-5.8,6.67-17.27,4.82-20.75-3.29C1003.25,535,1009.19,523.83,1018.87,523.76Z" transform="translate(-243 -265)"/><path d="M690.07,517.81c.26,3.21-2.12,4.4-4.18,5.48-4.36,2.3-8.76,1.69-12.81-.85-5.07-3.19-5.7-8.28-5.17-13.65.85-8.55,8.19-14.28,15.93-12.53a10.85,10.85,0,0,1,8.58,11.3c-.09,2.3-.82,3.38-3.33,2.94-3.76-.66-7.61-.93-11.33-1.75-3.21-.7-3.81.69-3.67,3.39.38,7.19,6.43,10.51,12.66,6.91C687.69,518.51,688.48,517.52,690.07,517.81Z" transform="translate(-243 -265)"/><path d="M1118.18,518.63c6.17.33,6.23.42,4.79,6.13q-3.59,14.25-7.21,28.47c-.67,2.6-1.79,5.2,1.59,6.86.57.28,1.08,1,.54,1.66a2.1,2.1,0,0,1-1.68.59c-2.44-.5-4.87-1.06-7.26-1.76-1.54-.45-3.9-.32-4.26-2-.46-2.23,2.23-1.18,3.25-2.06,1.23-1.07,1.45-2.59,1.82-4q3.33-12.51,6.56-25.06c.45-1.72,1.2-3.49-.13-5.23-.71-.93-3-1.2-1.88-2.9C1115.22,517.86,1117,518.62,1118.18,518.63Z" transform="translate(-243 -265)"/><path d="M938,550.1a30.92,30.92,0,0,1-14.72.34c4-2.27,4.11-5.71,4-9.43-.25-7.65-.28-15.32-.37-23,0-2.67.38-5.47-3.21-6.39-.89-.23-1.47-1.43-.65-1.89a14.12,14.12,0,0,1,8.15-1.71c2.71.23,1.71,2.84,1.73,4.45.14,9.33.11,18.65.19,28C933.16,544.26,931.63,548.78,938,550.1Z" transform="translate(-243 -265)"/><path d="M980.36,552c-5.71.34-10.21.67-16.2-.35,5.16-2.32,5.19-5.78,5.12-9.47-.15-7.65,0-15.3,0-23,0-2.67.25-5.48-3.31-6.37-.8-.2-1.77-1.16-.95-1.78,2.47-1.86,5.59-2.1,8.5-2,2.46.08,1.58,2.53,1.59,4,.08,9.81,0,19.63,0,29.45C975.1,548.21,975.11,548.21,980.36,552Z" transform="translate(-243 -265)"/><path d="M1000.63,550a37.83,37.83,0,0,1-15.8.54c5.63-2.43,5.33-5.88,5.17-9.62-.32-7.81-.23-15.63-.28-23.46,0-2.4,0-4.74-3-5.6-.77-.23-1.65-.66-1.39-1.71s1.15-1.1,2-1.27l4.4-.93c2.56-.56,3.6.39,3.63,3.08.12,10.15.47,20.29.57,30.43C996,545.11,995.83,548.59,1000.63,550Z" transform="translate(-243 -265)"/><path d="M1139.34,561.64c-2.26,4.84-5.38,6.3-9.9,4.76-4.33-1.48-5.56-4-4.25-9.1,1-3.87,2.16-7.69,3.17-11.55.29-1.1.82-2.92.35-3.31-5.17-4.17.06-4.13,2.08-5.34s3.12-3,4.45-4.65c.53-.67,1.21-1.34,2.09-.88a1.69,1.69,0,0,1,.53,2.21c-1.43,4-2.09,7.53,3.85,8a1.46,1.46,0,0,1,1.25,1.84,1.51,1.51,0,0,1-2.32,1.06c-5.11-2.3-6.3.83-7.14,4.86-.57,2.76-1.55,5.44-2.25,8.17-.41,1.58-1.16,3.37.42,4.66s3.43.8,5.1-.23C1137.43,561.75,1138,561,1139.34,561.64Z" transform="translate(-243 -265)"/><path d="M862.29,542.46c-.3,4.62-2.49,6.69-7.06,6.68s-7.26-2-7.23-6.35c0-4.48.61-8.95.93-13.43.08-1,0-2,.17-3,.42-2.36-4.25-2.38-2.7-3.77,3.14-2.8,6-5.6,7.86-9.38.41-.8,1.59-.42,1.8.6a7.62,7.62,0,0,1,.05,3c-.71,3.69.47,5.77,4.48,5.79.94,0,2.26-.08,2.29,1.28,0,1.7-1.43,1.76-2.52,1.46-5.05-1.37-5.42,1.7-5.53,5.41-.08,3.15-.56,6.29-.78,9.45-.11,1.6-.67,3.52,1.2,4.47s3.55.24,5-1.15C860.81,543,861.27,542.15,862.29,542.46Z" transform="translate(-243 -265)"/><path d="M804.61,515.58c3.77-.84,4.92.45,4.47,3.58-.7,4.75-1.36,9.52-1.91,14.29-.29,2.59-.94,5.4,2.29,6.9a1.25,1.25,0,0,1,.86,1.57c-.35,1-1.26,1-2.07.89q-4.93-.62-9.85-1.34c-.8-.12-1.72-.32-1.92-1.29s.71-1.37,1.49-1.58c2.4-.68,3-2.64,3-4.66,0-5.4,3.06-10.59-.46-16.37C799,515.13,803.74,516.61,804.61,515.58Z" transform="translate(-243 -265)"/><path d="M884.27,549.5c4.33-1.92,4.84-5.31,4.52-8.88-.41-4.73,2.39-10-2.34-14.07a1.38,1.38,0,0,1,.23-1.23A12.4,12.4,0,0,1,893.9,524c2.42.45,1.23,2.75,1.24,4.18a95.65,95.65,0,0,1-.4,12.45c-.47,3.93-.49,7.33,4.1,9.35C893.83,551.51,889.17,550.43,884.27,549.5Z" transform="translate(-243 -265)"/><path d="M957.85,552.93c-5.19,1.85-9.79-.07-15.33.32,5.59-5.28,6.68-17.45,2.62-22.76-1.28-1.68-1-2,.67-2.72,5.83-2.48,7.54-1.41,7.52,4.85,0,3.47,0,7,0,10.43C953.16,549,953.12,549,957.85,552.93Z" transform="translate(-243 -265)"/><path d="M387,479.16a6.83,6.83,0,1,1-7.08-6.85A7.06,7.06,0,0,1,387,479.16Z" transform="translate(-243 -265)"/><path d="M606.87,493.73c2.33.31,5.13.64,7.92,1.06,1.66.25,3.5.45,3.1,2.9-.35,2.06-1.9,2-3.45,1.82q-4.46-.56-8.89-1.17c-1.56-.22-3-.57-2.83-2.67C602.93,493,604.77,493.62,606.87,493.73Z" transform="translate(-243 -265)"/><path d="M892.93,516.84a3.51,3.51,0,0,1-3.68-3.83c0-2.54,1.28-4.06,4-3.95,2.47.11,3.47,1.66,3.35,4S895.31,516.72,892.93,516.84Z" transform="translate(-243 -265)"/><path d="M954.23,515.53c0,2.3-.9,3.91-3.31,4.13-2.67.25-4-1.27-4.1-3.82a3.36,3.36,0,0,1,3.57-3.83C952.82,511.92,954.09,513.12,954.23,515.53Z" transform="translate(-243 -265)"/><path d="M811.36,504.36c-.14,2.22-.9,3.83-3.46,3.89-2.37.05-3.83-1.05-3.89-3.4s1-4.16,3.74-4.15C810.12,500.7,811.32,502,811.36,504.36Z" transform="translate(-243 -265)"/><path class="cls-1" d="M1138,581.93c-10.66,4-20.48,5.53-30.35,6.84-19,2.53-38.24,2-57.37,2.77-44.11,1.72-88.23,3-132.34,4.61-41.11,1.52-82.23,3-123.32,5-54.4,2.64-108.82,4.83-163.19,8.32-28.08,1.79-56.23,2.69-84.32,4.4-42.55,2.59-85.1,5.09-127.64,7.75-40.06,2.51-80.07,5.79-120.14,8.18-4.15.24-5.5-.83-5.48-5.09q.22-48.22,0-96.44c0-3.35.41-5.2,4.57-5,31.14,1.41,62.29.53,93.44-.16,3.13-.07,6.38-.68,8,3.18a2.83,2.83,0,0,0,2,1.32c8.17.78,16.65,3.1,23.5-3.88,1.62-1.65,3.57-1.61,5.55-1.63,14.83-.15,29.65-.2,44.48-.47,3.61-.06,5.39,1.08,5,4.82-.45,3.9,1.59,4.66,5.06,4.65q45.74-.15,91.47,0c3,0,5.36-.25,5-4.18-.28-3.52,2.36-3,4.45-2.82,13.27,1.13,26.55,2.14,39.79,3.54,44.37,4.71,88.32,12.66,132.59,18.12,57.69,7.11,115.57,12.08,173.74,13.44,37.16.86,74.29.49,111.43-.49,31.14-.82,60.4,6.32,88.28,19.8C1133.92,579.26,1135.39,580.33,1138,581.93Z" transform="translate(-243 -265)"/><path class="cls-1" d="M482.21,456.29c0-22.65.09-45.29-.08-67.94,0-4,1.17-5.15,5.08-5.13q43.73.19,87.44,0c4.07,0,5.45,1.15,5.44,5.35q-.17,67.95,0,135.89c0,3.33-.86,4.82-4.48,4.73-8.15-.2-16.32-.16-24.48,0-3.2.06-4.54-1.08-4.42-4.33.14-4.33-.1-8.66,0-13,.12-3.83-1.68-6.21-4.91-7.94-5.13-2.76-10.61-2.86-16.07-1.9-7.81,1.35-10.31,4.63-10.33,12.57,0,3.66-.07,7.33,0,11,0,2.51-1,3.58-3.6,3.57-8.66-.07-17.32-.13-26,0-3.91.08-3.65-2.34-3.65-4.93Q482.23,490.27,482.21,456.29Z" transform="translate(-243 -265)"/><path class="cls-1" d="M484.31,369.13c0-2.8.09-5.62,0-8.42-.11-2.52.85-3.54,3.45-3.54s3.62.89,3.59,3.45q-.1,8.67,0,17.35c0,2.64-1.35,3.38-3.74,3.34s-3.34-.91-3.28-3.25C484.38,375.08,484.31,372.11,484.31,369.13Z" transform="translate(-243 -265)"/><path class="cls-1" d="M500.17,369.52c0,2.66,0,5.32,0,8,.05,2.31-.52,3.78-3.29,3.83s-3.76-1.29-3.71-3.94c.08-5.49.06-11,0-16.47,0-2.33.54-3.71,3.32-3.76s3.81,1.2,3.7,3.88S500.18,366.69,500.17,369.52Z" transform="translate(-243 -265)"/><path class="cls-1" d="M509,369.26c0,2.82-.08,5.65,0,8.46.08,2.51-.92,3.6-3.5,3.61s-3.37-1.3-3.33-3.71c.1-5.64.12-11.29,0-16.93-.06-2.54.83-3.52,3.44-3.52s3.48,1.19,3.39,3.63C508.87,363.62,509,366.44,509,369.26Z" transform="translate(-243 -265)"/><path class="cls-1" d="M560.07,369.53c0,2.81,0,5.62,0,8.43,0,2.24-.9,3.3-3.24,3.35-2.51.05-3.67-1-3.66-3.48,0-5.79,0-11.58,0-17.37,0-2.68,1.42-3.29,3.8-3.27s3.14,1.25,3.11,3.4C560,363.57,560.07,366.55,560.07,369.53Z" transform="translate(-243 -265)"/><path class="cls-1" d="M577.85,369.47c0,2.81-.05,5.62,0,8.44.06,2.6-1.26,3.44-3.71,3.4s-3.17-1.23-3.16-3.42q.06-8.68,0-17.38c0-2.21.77-3.3,3.18-3.32s3.77.69,3.7,3.34C577.79,363.51,577.85,366.49,577.85,369.47Z" transform="translate(-243 -265)"/><path class="cls-1" d="M562.09,369.08c0-2.65.09-5.3,0-7.95s.4-4,3.47-4,3.51,1.5,3.47,4c-.1,5.46-.14,10.93,0,16.39.07,2.77-.92,3.84-3.73,3.8s-3.27-1.52-3.2-3.82C562.16,374.71,562.1,371.9,562.09,369.08Z" transform="translate(-243 -265)"/><path class="cls-1" d="M416.41,497.74c.1,3.62-1.14,6.2-5.19,6.43-3.71.22-5.92-2.82-5.91-8.08,0-3.67,1-6.7,5.41-6.77C414.29,489.26,416.39,492.48,416.41,497.74Z" transform="translate(-243 -265)"/><path class="cls-1" d="M513.74,369.09c0,3.14,0,6.29,0,9.43,0,1-.13,2.19-1.38,2.28s-1.48-1.14-1.49-2.11q-.06-9.44,0-18.87c0-.95,0-2.25,1.33-2.25,1.64,0,1.55,1.46,1.57,2.58,0,3,0,6,0,8.94Z" transform="translate(-243 -265)"/><path class="cls-1" d="M551.32,369.53c0,3.16,0,6.32,0,9.48,0,.82-.3,1.74-1.34,1.76s-1.4-.84-1.4-1.69q-.07-9.74,0-19.46c0-1,.25-2.11,1.62-2,1.07.1,1.16,1.13,1.18,1.91.06,3.33,0,6.66,0,10Z" transform="translate(-243 -265)"/><path class="cls-1" d="M421.26,520.19c-5.29,1.31-10.18.75-15,.76a1.59,1.59,0,0,1-1.16-.7c-.41-.75.26-1.19.77-1.58C408.23,516.82,418,517.5,421.26,520.19Z" transform="translate(-243 -265)"/><path class="cls-1" d="M419.54,523.52c-4.52,2.78-9.18,3.09-14,.32A33.07,33.07,0,0,1,419.54,523.52Z" transform="translate(-243 -265)"/><path class="cls-1" d="M337.32,503.74c0-9.56,1.57-10.79,11-8.62,5,1.16,7.2,4,7.08,9.29-.11,4.73-2.19,7.92-7.09,8.81a26.94,26.94,0,0,1-2.95.45c-7,.55-8.05-.46-8.05-7.44C337.31,505.4,337.32,504.57,337.32,503.74Z" transform="translate(-243 -265)"/><path class="cls-1" d="M337.14,482.87c1-2.73-1.7-6.67,2.23-8,3.6-1.21,7.63-1.23,10.95,1.32,3.05,2.34,3,5.77,2.46,9.11-.71,4.32-11.57,8.22-14.6,5.14C336.13,488.36,337.9,485.32,337.14,482.87Z" transform="translate(-243 -265)"/><path class="cls-1" d="M1077.11,541c1.54.06,3.05-.37,3,2.13-.1,4-2.84,7.7-6.19,7.57-2.39-.1-4.27-1.09-4-3.86C1070.26,542.41,1073.65,541.55,1077.11,541Z" transform="translate(-243 -265)"/><path class="cls-1" d="M1095.37,540.26c-2-1.28-6.51,1-7-3-.35-2.82,2.4-5,5.69-5.09s4.72,2.1,5.06,5.05C1099.39,539.62,1098.08,540.57,1095.37,540.26Z" transform="translate(-243 -265)"/><path class="cls-1" d="M821.93,534.34c-.13-4.46.29-7.4,2.11-10,1.56-2.2,3.62-3.43,6.41-2.9s4.29,2.34,4.86,5.06c.77,3.68.17,7.31-.63,10.88-.65,2.89-1.95,5.37-5.53,5.42s-5.65-1.8-6.63-5A17.19,17.19,0,0,1,821.93,534.34Z" transform="translate(-243 -265)"/><path class="cls-1" d="M448,492a23.49,23.49,0,0,1,2,13.68c-.45,3-1.91,5.37-5.08,6.13-1.82.43-3.81.57-5.16-1s.32-2.79.9-4C442.86,502.2,445.18,497.67,448,492Z" transform="translate(-243 -265)"/><path class="cls-1" d="M436.91,507.1a22.91,22.91,0,0,1-1.37-15,6.14,6.14,0,0,1,4.19-4.62c1.58-.49,3.46-.85,4.76.37s.05,2.82-.52,4.09C441.81,496.74,439.55,501.47,436.91,507.1Z" transform="translate(-243 -265)"/><path class="cls-1" d="M1041.88,538.57c.12-1.65.12-3.33.38-5,.57-3.39,2.17-6.09,6-6.26,3.59-.17,6,2,7.06,5.23a18.3,18.3,0,0,1,0,11.29c-1.07,3.37-3.14,6.12-7.16,5.59-3.82-.49-5.63-3.23-6-6.91a37.54,37.54,0,0,1,0-4Z" transform="translate(-243 -265)"/><path class="cls-1" d="M659.3,500c1.05,5.35.63,9.24-.83,13a6,6,0,0,1-5.63,4.22c-1.54.06-3.13-.14-4.08-1.44-1.25-1.7.48-2.72,1.29-3.81C652.82,508.22,655.7,504.61,659.3,500Z" transform="translate(-243 -265)"/><path class="cls-1" d="M646.45,511.22a22.1,22.1,0,0,1,1.22-12.59,5.86,5.86,0,0,1,5.3-3.91c1.34-.07,2.8-.09,3.69,1,1.14,1.44-.24,2.44-1,3.43C652.84,502.94,650,506.66,646.45,511.22Z" transform="translate(-243 -265)"/><path class="cls-1" d="M385.27,506.05c-.14,4.77-2.55,7.39-6.44,7.27-2.68-.09-3.83-1.48-3.82-4.06,0-3.54,4.39-7.34,8.15-7.11C386.22,502.33,384.83,504.74,385.27,506.05Z" transform="translate(-243 -265)"/><path class="cls-1" d="M1017.66,534.65c-2-.84-5,.9-4.93-2.36s2-5.63,5.52-5.79c3.22-.14,5,2,5.06,4.92C1023.33,536,1019.14,533,1017.66,534.65Z" transform="translate(-243 -265)"/><path class="cls-1" d="M682,506.87c-1.91-.94-6.25,1-6.44-3.13-.12-2.86,2.54-4.87,5.83-4.81s4.73,1.95,4.91,5C686.43,506.68,684.79,507.29,682,506.87Z" transform="translate(-243 -265)"/><path class="cls-1" d="M383.63,479.36c-.22,2.35-1.4,3.78-3.83,3.72a3.25,3.25,0,0,1-3.47-3.46c-.05-2.29,1.08-3.94,3.49-4S383.36,477.1,383.63,479.36Z" transform="translate(-243 -265)"/><path d="M540.34,468.07c0,.5,0,1,0,1.5-.4,3.9,1.9,9.38-1.08,11.38-4.13,2.76-10,.8-15.09.87-2,0-2.28-1.53-2.27-3.15,0-6.81-.21-13.64.11-20.44a9.14,9.14,0,0,1,18.26.37c.18,3.15,0,6.32,0,9.47Z" transform="translate(-243 -265)"/><path d="M521.91,413.32c0-3.15-.14-6.31,0-9.46a9.44,9.44,0,0,1,9-9,9.29,9.29,0,0,1,9.35,9c.18,6.47,0,12.95.09,19.42,0,2.61-1.14,3.62-3.58,3.53a4.17,4.17,0,0,0-.5,0C521.88,427.8,521.88,427.8,521.91,413.32Z" transform="translate(-243 -265)"/></svg>