<svg xmlns="http://www.w3.org/2000/svg" viewBox="0 0 224.63 72.73"><defs><style>.cls-1{opacity:0.5;}.cls-2{fill:#ecff45;}.cls-3,.cls-4{fill:none;}.cls-3,.cls-4,.cls-5,.cls-6{stroke:#000;stroke-miterlimit:10;}.cls-4,.cls-5,.cls-6{stroke-width:0.5px;}.cls-5{fill:#fff;}</style></defs><title>baagoe-logo-small-2</title><g id="Layer_2" data-name="Layer 2"><g class="cls-1"><polygon class="cls-2" points="105.28 13.25 58.22 25.09 58.44 0 105.28 13.25"/></g><path class="cls-3" d="M734.58,492.5c-7.42-.71-14.82-1.33-22.25-1.82-9.16-.59-18.33-.73-27.5-1.24a109.73,109.73,0,0,1-14.6-1.46c-2.31-.45-4.6-1-6.93-1.38a81.1,81.1,0,0,0-10.8-.47c-24.85-.27-49.73-3-74.51-4.8q-32.54-2.38-65.14-3.17c9.47-3.67,19.92-3.4,30.06-3.87,30.75-1.41,61-10.06,91.76-9.72,13.72.15,27.45,2.09,41.14,1.1,6.78-.49,14-1.93,18.77-6.76,1.45-1.47,2.75-3.28,4.72-3.88,4.17-1.28,8.42,3.61,12.58,2.28,2.73-.87,4.17-4.13,6.92-4.94s5.56,1.21,8.19,2.51c2.39,1.18,6,1.25,7.22-.88" transform="translate(-510.34 -420.27)"/><path class="cls-3" d="M734.12,454.09q.71,19.2,0,38.43" transform="translate(-510.34 -420.27)"/></g><g id="Layer_4" data-name="Layer 4"><line class="cls-4" x1="101.07" y1="19.89" x2="99.59" y2="19.89"/><line class="cls-4" x1="121.27" y1="19.89" x2="119.78" y2="19.89"/><rect class="cls-4" x="101.64" y="15.07" width="17.43" height="4.82"/><rect class="cls-5" x="100.93" y="19.89" width="18.85" height="26.5"/><rect class="cls-6" x="109.09" y="33.12" width="2.53" height="4.89"/><path class="cls-4" d="M622,453.39a1.21,1.21,0,0,0-1.27-1.14" transform="translate(-510.34 -420.27)"/><path class="cls-4" d="M619.43,453.39a1.2,1.2,0,0,1,1.26-1.14" transform="translate(-510.34 -420.27)"/><line class="cls-4" x1="109.09" y1="33.12" x2="111.62" y2="33.12"/><rect class="cls-6" x="108.21" y="42.45" width="4.3" height="3.87"/><path class="cls-4" d="M622.84,462.72c0-.5-1-.9-2.15-.9" transform="translate(-510.34 -420.27)"/><path class="cls-4" d="M618.54,462.72c0-.5,1-.9,2.15-.9" transform="translate(-510.34 -420.27)"/><line class="cls-4" x1="108.21" y1="42.45" x2="112.51" y2="42.45"/><rect class="cls-6" x="109.09" y="24" width="2.53" height="4.89"/><path class="cls-4" d="M622,444.27a1.21,1.21,0,0,0-1.27-1.14" transform="translate(-510.34 -420.27)"/><path class="cls-4" d="M619.43,444.27a1.2,1.2,0,0,1,1.26-1.14" transform="translate(-510.34 -420.27)"/><line class="cls-4" x1="109.09" y1="24" x2="111.62" y2="24"/><rect x="106.48" y="15.07" width="7.75" height="4.82"/><polygon points="112.29 11.72 108.42 11.72 106.48 15.07 108.42 18.43 112.29 18.43 114.23 15.07 112.29 11.72"/><line class="cls-4" x1="102.77" y1="15.07" x2="102.77" y2="19.77"/><line class="cls-4" x1="103.91" y1="15.07" x2="103.91" y2="19.77"/><line class="cls-4" x1="105.08" y1="15.07" x2="105.08" y2="19.77"/><line class="cls-4" x1="106.26" y1="15.13" x2="106.26" y2="19.83"/><line class="cls-4" x1="114.48" y1="15.16" x2="114.48" y2="19.86"/><line class="cls-4" x1="115.61" y1="15.16" x2="115.61" y2="19.86"/><line class="cls-4" x1="116.78" y1="15.16" x2="116.78" y2="19.86"/><line class="cls-4" x1="117.96" y1="15.22" x2="117.96" y2="19.92"/></g></svg>