<svg xmlns="http://www.w3.org/2000/svg" viewBox="0 0 1076.25 822.76"><defs><style>.cls-1{fill:#5f89af;}.cls-2,.cls-7{fill:none;}.cls-2{stroke:#fff;stroke-width:2px;}.cls-2,.cls-7,.cls-8{stroke-miterlimit:10;}.cls-3{fill:#79af6d;}.cls-4{fill:#c6bd8d;}.cls-5{fill:#f4f462;}.cls-11,.cls-6{fill:#fff;}.cls-7,.cls-8{stroke:#000;}.cls-9{fill:#4c7259;}.cls-10{fill:#405e49;}.cls-11{font-size:100px;font-family:MyriadPro-Regular, Myriad Pro;}.cls-12{letter-spacing:-0.01em;}</style></defs><title>baagoe-logo-big</title><g id="Layer_4" data-name="Layer 4"><circle class="cls-1" cx="496.31" cy="411.38" r="411.38"/></g><g id="Layer_7" data-name="Layer 7"><path class="cls-2" d="M1352.43,731.91a16.91,16.91,0,0,1-16.92,16.92" transform="translate(-715.59 -144.64)"/><path class="cls-2" d="M1352.43,731.87a16.91,16.91,0,0,0,16.92,16.92" transform="translate(-715.59 -144.64)"/><path class="cls-2" d="M1386.27,731.87a16.91,16.91,0,0,1-16.92,16.92" transform="translate(-715.59 -144.64)"/><path class="cls-2" d="M1386.27,731.91a16.91,16.91,0,0,0,16.92,16.92" transform="translate(-715.59 -144.64)"/><path class="cls-2" d="M1420.11,731.91a16.91,16.91,0,0,1-16.92,16.92" transform="translate(-715.59 -144.64)"/><path class="cls-2" d="M1420.11,731.91A16.91,16.91,0,0,0,1437,748.83" transform="translate(-715.59 -144.64)"/><path class="cls-2" d="M1318.59,731.91a16.91,16.91,0,0,1-16.92,16.92" transform="translate(-715.59 -144.64)"/><path class="cls-2" d="M1318.59,731.91a16.91,16.91,0,0,0,16.92,16.92" transform="translate(-715.59 -144.64)"/><path class="cls-2" d="M1242.45,852.88a16.91,16.91,0,0,1-16.92,16.92" transform="translate(-715.59 -144.64)"/><path class="cls-2" d="M1242.45,852.84a16.91,16.91,0,0,0,16.92,16.92" transform="translate(-715.59 -144.64)"/><path class="cls-2" d="M1276.29,852.84a16.91,16.91,0,0,1-16.92,16.92" transform="translate(-715.59 -144.64)"/><path class="cls-2" d="M1276.29,852.88a16.91,16.91,0,0,0,16.92,16.92" transform="translate(-715.59 -144.64)"/><path class="cls-2" d="M1310.13,852.88a16.91,16.91,0,0,1-16.92,16.92" transform="translate(-715.59 -144.64)"/><path class="cls-2" d="M1310.13,852.88a16.91,16.91,0,0,0,16.92,16.92" transform="translate(-715.59 -144.64)"/><path class="cls-2" d="M1208.61,852.88a16.91,16.91,0,0,1-16.92,16.92" transform="translate(-715.59 -144.64)"/><path class="cls-2" d="M1208.61,852.88a16.91,16.91,0,0,0,16.92,16.92" transform="translate(-715.59 -144.64)"/><path class="cls-2" d="M1067.17,765.77a16.91,16.91,0,0,1-16.92,16.92" transform="translate(-715.59 -144.64)"/><path class="cls-2" d="M1067.17,765.72a16.91,16.91,0,0,0,16.93,16.92" transform="translate(-715.59 -144.64)"/><path class="cls-2" d="M1101,765.72a16.91,16.91,0,0,1-16.92,16.92" transform="translate(-715.59 -144.64)"/><path class="cls-2" d="M1101,765.77a16.91,16.91,0,0,0,16.92,16.92" transform="translate(-715.59 -144.64)"/><path class="cls-2" d="M1134.86,765.77a16.91,16.91,0,0,1-16.92,16.92" transform="translate(-715.59 -144.64)"/><path class="cls-2" d="M1134.86,765.77a16.91,16.91,0,0,0,16.92,16.92" transform="translate(-715.59 -144.64)"/><path class="cls-2" d="M1033.33,765.77a16.91,16.91,0,0,1-16.92,16.92" transform="translate(-715.59 -144.64)"/><path class="cls-2" d="M1033.33,765.77a16.91,16.91,0,0,0,16.92,16.92" transform="translate(-715.59 -144.64)"/></g><g id="Layer_2" data-name="Layer 2"><path class="cls-3" d="M1747.52,645.18c-15.85,2.29-31.84,3.77-47.86,4.84-15.43,1-30.88,1.67-46.31,2.28q-20.89.84-41.78,1.61c-264.08,9.81-528.68,13-792.65,24.13q-43.77,1.86-87.53,4a496.19,496.19,0,0,1-15.8-107.34q16.49,1.72,32.95,3.83,15.36,2,30.7,4.21,11.19,1.61,22.37,3.3c29,4.37,58,8.94,87.15,12.59l5.3.65q5,.62,10,1.17c10.77,1.21,21.55,2.27,32.36,3.12,16.87,1.33,33.76,2.14,50.67,2.58,59,1.58,118.22-1.23,177.33-1.79q16.75-.17,33.49,0,14,.12,28,.53,16.75.5,33.49,1.54,7.56.48,15.12,1.09c52.5,4.25,104.45,13.53,156.69,20.25a1613.32,1613.32,0,0,0,183.36,13q42.69.6,85.37-1.07l1.63-.05A172.71,172.71,0,0,1,1747.52,645.18Z" transform="translate(-715.59 -144.64)"/><path class="cls-4" d="M1791.84,663.05c-20.55,7.67-42.94,8.39-64.86,9.08q-16.17.51-32.33,1-44.61,1.46-89.23,3.12h0c-256.54,9.56-513.83,24.08-770.34,45q-44.48,3.63-88.92,7.53a488.89,488.89,0,0,1-14.76-46.78q43.76-2.17,87.53-4c264-11.16,528.56-14.32,792.64-24.13h0q20.9-.78,41.78-1.61c15.43-.61,30.88-1.25,46.31-2.28,16-1.07,32-2.55,47.86-4.84C1763.55,649.23,1779,655.35,1791.84,663.05Z" transform="translate(-715.59 -144.64)"/></g><g id="Layer_6" data-name="Layer 6"><polygon class="cls-5" points="524.89 310.24 775.89 255.11 775.89 365.36 524.89 310.24"/></g><g id="Layer_1" data-name="Layer 1"><path class="cls-6" d="M1164.43,472.62V613.45h33.49V594.34c0-4,6.26-7.26,14-7.26s14,3.25,14,7.26v19.11h33.49V472.62Zm39.56,73a7.91,7.91,0,1,1,15.82,0v20.83H1204Zm0-52.29a7.91,7.91,0,1,1,15.82,0v20.84H1204Z" transform="translate(-715.59 -144.64)"/><path class="cls-7" d="M1204,514.16h15.82V493.32a7.91,7.91,0,1,0-15.82,0Z" transform="translate(-715.59 -144.64)"/><path class="cls-7" d="M1204,566.44h15.82V545.61a7.91,7.91,0,1,0-15.82,0Z" transform="translate(-715.59 -144.64)"/><line class="cls-7" x1="451.05" y1="327.97" x2="443.84" y2="327.97"/><line class="cls-7" x1="541.58" y1="327.97" x2="548.78" y2="327.97"/><rect class="cls-7" x="451.05" y="303.11" width="90.53" height="24.86"/><rect class="cls-8" x="480.59" y="303.11" width="31.45" height="24.86"/><rect class="cls-7" x="533.23" y="303.11" width="8.35" height="24.86"/><rect class="cls-7" x="524.89" y="303.11" width="8.34" height="24.86"/><rect class="cls-7" x="516.55" y="303.11" width="8.34" height="24.86"/><rect class="cls-7" x="451.1" y="303.11" width="8.34" height="24.86"/><rect class="cls-7" x="459.44" y="303.11" width="8.34" height="24.86"/><rect class="cls-7" x="467.78" y="303.11" width="8.34" height="24.86"/><polygon points="488.3 289.24 504.32 289.24 512.33 303.11 504.32 316.98 488.3 316.98 480.3 303.11 488.3 289.24"/><rect x="488.4" y="348.67" width="15.82" height="20.84"/><circle cx="1211.9" cy="493.32" r="7.91" transform="translate(-796.51 146.99) rotate(-13.28)"/><rect x="488.4" y="400.96" width="15.82" height="20.83"/><path d="M1204,545.61a7.91,7.91,0,1,0,7.91-7.92A7.91,7.91,0,0,0,1204,545.61Z" transform="translate(-715.59 -144.64)"/><rect x="482.33" y="449.69" width="27.96" height="19.11"/><ellipse cx="496.31" cy="449.69" rx="13.98" ry="7.26"/><circle cx="496.31" cy="282.19" r="5.23"/><rect x="493.27" y="284.72" width="6.09" height="9.04"/></g><g id="Layer_5" data-name="Layer 5"><path class="cls-9" d="M880.91,568.38A62,62,0,0,0,895.18,608a79.22,79.22,0,1,1,25-97.51A62.24,62.24,0,0,0,880.91,568.38Z" transform="translate(-715.59 -144.64)"/><path class="cls-10" d="M896.36,568.38a46.56,46.56,0,0,0,10.36,29.35A79,79,0,0,1,895.18,608a62.23,62.23,0,0,1,25-97.51,78.16,78.16,0,0,1,5.15,14.59A46.79,46.79,0,0,0,896.36,568.38Z" transform="translate(-715.59 -144.64)"/><path class="cls-9" d="M1001.11,568.38a58,58,0,1,1-58-58A58,58,0,0,1,1001.11,568.38Z" transform="translate(-715.59 -144.64)"/></g><g id="Layer_8" data-name="Layer 8"><text class="cls-11" transform="translate(276.62 179.03)">B<tspan class="cls-12" x="54.2" y="0">Å</tspan><tspan x="113.9" y="0">GØ</tspan></text></g></svg>