<svg id="Layer_2" data-name="Layer 2" xmlns="http://www.w3.org/2000/svg" viewBox="0 0 473.36 109.83"><defs><style>.cls-1{fill:none;stroke:#000;stroke-miterlimit:10;}.cls-2{fill:#ecff45;}</style></defs><title>baagoe-logo-small-1</title><path class="cls-1" d="M578,481.33q-32.54-2.38-65.14-3.17c9.47-3.67,19.92-3.4,30.06-3.87,30.75-1.41,61-10.06,91.76-9.72,13.72.15,27.45,2.09,41.14,1.1,6.78-.49,14-1.93,18.77-6.76,1.45-1.47,2.75-3.28,4.72-3.88,4.17-1.28,8.42,3.61,12.58,2.28,2.73-.87,4.17-4.13,6.92-4.94s5.56,1.21,8.19,2.51,6.76,1.27,7.5-1.57c1.94-1.37,3-3.25,4.28-5.25a38.44,38.44,0,0,1,8.6-6c1.55-.79,3.51-1.45,4.93-.46,1,.73,1.4,2.07,2,3.19a7.46,7.46,0,0,0,4.85,3.76,3.3,3.3,0,0,0,2.3-.14,4.78,4.78,0,0,0,1.7-2.17,12.19,12.19,0,0,1,5.4-5.57,7,7,0,0,1,7.42.76c2.75,2.43,2.59,7,5.18,9.59,1.77,1.77,4.41,2.25,6.89,2.61,3.24.48,6.63.89,9.74-.14,3.49-1.15,6.42-4,10.09-4.26,4.52-.27,8.29,3.59,12.78,4.24,2.45.36,4.93-.28,7.35-.86a171.58,171.58,0,0,1,25.9-4.12c2.22-.18,4.29.46,6.52.59a5.38,5.38,0,0,0,2.43-.22,5.7,5.7,0,0,0,2.4-2.59,16.13,16.13,0,0,1,3.93-4.78,6.39,6.39,0,0,1,5.85-1.16c3.16,1.15,5.13,5.48,8.44,4.92,3.1-.51,4.59-5.19,7.71-4.89,1.46.14,2.52,1.36,3.63,2.31s2.83,1.64,4,.72c.65-.52.89-1.44,1.58-1.91,1.28-.89,3,.3,4.54.27s2.8-1.28,4.19-2c2-1.06,4.43-1,6.71-.89a2.45,2.45,0,0,1,1.51.4c.4.34.48,1.1,0,1.35a8.6,8.6,0,0,0,3.07-.1,2.56,2.56,0,0,1,2.66,1.11,11.06,11.06,0,0,1,.3,1.13c.52,1.67,2.64,2.06,4.1,3,2.11,1.39,2.83,4.1,4.13,6.27s4.24,4,6.24,2.45A5.44,5.44,0,0,0,939.3,452l3.75-9.55a16.85,16.85,0,0,1,2.55-4.86,5.77,5.77,0,0,1,4.79-2.24c3.1.34,4.74,3.7,6.91,5.93,2.79,2.88,7,4.08,11,4.1s7.94-1,11.81-2.07a324.82,324.82,0,0,1,.24,88,162.25,162.25,0,0,0-33-4.68c-8-.31-16,0-24-.65-11.74-.92-23.29-3.83-35.06-4-7.51-.14-15,.82-22.51,1a115.19,115.19,0,0,1-37.56-5.19l76-4.13c-10.39-2.55-21-3.82-31.68-5.08l-95.8-11.41c-21.42-2.55-42.85-5.1-64.37-6.49-9.16-.59-18.33-.73-27.5-1.24a109.73,109.73,0,0,1-14.6-1.46c-2.31-.45-4.6-1-6.93-1.38a81.1,81.1,0,0,0-10.8-.47C627.65,485.86,602.77,483.15,578,481.33Z" transform="translate(-510.34 -422.11)"/><path d="M629,466.91V440.25h-1.41v-4.52h-1.68v-4.55h-7.67v4.54h-3.63v5.1H612V468C617.85,468,623.11,466.62,629,466.91Z" transform="translate(-510.34 -422.11)"/><polygon class="cls-2" points="101.64 13.25 54.58 25.09 54.8 0 101.64 13.25"/></svg>