<svg id="Layer_1" data-name="Layer 1" xmlns="http://www.w3.org/2000/svg" viewBox="0 0 362 498"><defs><style>.cls-1{fill:#ff9100;}</style></defs><title>bricks-1</title><path class="cls-1" d="M1010,613.83v150H835a25,25,0,0,1-25-25v-100a25,25,0,0,1,25-25Z" transform="translate(-648 -265.83)"/><rect id="Rectangle_68" data-name="Rectangle 68" class="cls-1" y="174" width="300" height="150" rx="25"/><path class="cls-1" d="M1010,265.83v150H835a25,25,0,0,1-25-25v-100a25,25,0,0,1,25-25Z" transform="translate(-648 -265.83)"/><path class="cls-1" d="M1010,439.83v150H997a25,25,0,0,1-25-25v-100a25,25,0,0,1,25-25Z" transform="translate(-648 -265.83)"/></svg>