<svg id="Layer_1" data-name="Layer 1" xmlns="http://www.w3.org/2000/svg" viewBox="0 0 524 498"><defs><style>.cls-1{fill:#ff9100;}</style></defs><title>bricks-2</title><path class="cls-1" d="M519.05,613.87v100a25,25,0,0,1-25,25h-175v-150h175A25,25,0,0,1,519.05,613.87Z" transform="translate(-319.05 -240.87)"/><rect id="Rectangle_76" data-name="Rectangle 76" class="cls-1" x="224" y="348" width="300" height="150" rx="25"/><path class="cls-1" d="M357.05,439.87v100a25,25,0,0,1-25,25h-13v-150h13A25,25,0,0,1,357.05,439.87Z" transform="translate(-319.05 -240.87)"/><path class="cls-1" d="M519.05,265.87v100a25,25,0,0,1-25,25h-175v-150h175A25,25,0,0,1,519.05,265.87Z" transform="translate(-319.05 -240.87)"/><rect id="Rectangle_77" data-name="Rectangle 77" class="cls-1" x="62" y="174" width="300" height="150" rx="25"/></svg>