<svg id="Layer_1" data-name="Layer 1" xmlns="http://www.w3.org/2000/svg" viewBox="0 0 708.7 672"><defs><style>.cls-1{fill:#ff9100;}</style></defs><title>bricks-4</title><path class="cls-1" d="M934.79,349.33v100a25,25,0,0,1-25,25h-174v-150h174A25,25,0,0,1,934.79,349.33Z" transform="translate(-735.79 -150.33)"/><rect id="Rectangle_93" data-name="Rectangle 93" class="cls-1" x="223" y="174" width="300" height="150" rx="25"/><path class="cls-1" d="M772.79,175.33v100a25,25,0,0,1-25,25h-12v-150h12A25,25,0,0,1,772.79,175.33Z" transform="translate(-735.79 -150.33)"/><path class="cls-1" d="M772.79,523.33v100a25,25,0,0,1-25,25h-12v-150h12A25,25,0,0,1,772.79,523.33Z" transform="translate(-735.79 -150.33)"/><path class="cls-1" d="M934.79,697.33v100a25,25,0,0,1-25,25h-174v-150h174A25,25,0,0,1,934.79,697.33Z" transform="translate(-735.79 -150.33)"/><rect id="Rectangle_91" data-name="Rectangle 91" class="cls-1" x="61" width="300" height="150" rx="25"/><rect id="Rectangle_92" data-name="Rectangle 92" class="cls-1" x="61" y="348" width="300" height="150" rx="25"/><rect id="Rectangle_95" data-name="Rectangle 95" class="cls-1" x="1210.78" y="460.35" width="150.02" height="300.04" rx="25" transform="translate(-372.53 1543.89) rotate(-74.99)"/></svg>